STARTFONT 2.1
FONT -Fondu-Espy Serif-Medium-R-Normal--16-150-75-75-P-92-MacRoman-1
SIZE 15 75 75
FONTBOUNDINGBOX 18 20 -2 -4
COMMENT Created by Fondu from a mac NFNT/FONT resource
STARTPROPERTIES 17
FOUNDRY "Fondu"
FAMILY_NAME "Espy Serif"
WEIGHT_NAME "Medium"
SLANT "R"
SETWIDTH_NAME "Normal"
ADD_STYLE_NAME ""
PIXEL_SIZE 16
POINT_SIZE 150
RESOLUTION_X 75
RESOLUTION_Y 75
SPACING "P"
AVERAGE_WIDTH 92
CHARSET_REGISTRY "MacRoman"
CHARSET_ENCODING "1"
FONT_ASCENT 16
FONT_DESCENT 4
FACE_NAME "Espy Serif 16"
ENDPROPERTIES
CHARS 224
STARTCHAR space
ENCODING 32
SWIDTH 250 0
DWIDTH 4 0
BBX 0 0 -2 -4
BITMAP
ENDCHAR
STARTCHAR exclam
ENCODING 33
SWIDTH 312 0
DWIDTH 5 0
BBX 2 12 1 0
BITMAP
C0
C0
C0
C0
C0
C0
C0
C0
C0
00
C0
C0
ENDCHAR
STARTCHAR quotedbl
ENCODING 34
SWIDTH 375 0
DWIDTH 6 0
BBX 5 4 0 9
BITMAP
D8
D8
48
48
ENDCHAR
STARTCHAR numbersign
ENCODING 35
SWIDTH 750 0
DWIDTH 12 0
BBX 12 11 0 0
BITMAP
0660
0660
0CC0
7FF0
1980
1980
3300
FFE0
3300
6600
6600
ENDCHAR
STARTCHAR dollar
ENCODING 36
SWIDTH 562 0
DWIDTH 9 0
BBX 7 15 1 -2
BITMAP
10
10
7C
D6
D0
D0
F0
7C
1E
16
16
D6
7C
10
10
ENDCHAR
STARTCHAR percent
ENCODING 37
SWIDTH 750 0
DWIDTH 12 0
BBX 11 12 0 0
BITMAP
70C0
DFC0
D980
DB00
7300
0600
0C00
0DC0
1B60
3360
3360
61C0
ENDCHAR
STARTCHAR ampersand
ENCODING 38
SWIDTH 812 0
DWIDTH 13 0
BBX 11 12 1 0
BITMAP
1E00
3300
3300
3600
1C00
3800
6CE0
C640
C380
C180
E3C0
7E60
ENDCHAR
STARTCHAR quotesingle
ENCODING 39
SWIDTH 187 0
DWIDTH 3 0
BBX 2 4 0 9
BITMAP
C0
C0
40
40
ENDCHAR
STARTCHAR parenleft
ENCODING 40
SWIDTH 312 0
DWIDTH 5 0
BBX 5 15 0 -2
BITMAP
18
30
20
60
40
C0
C0
C0
C0
C0
40
60
20
30
18
ENDCHAR
STARTCHAR parenright
ENCODING 41
SWIDTH 312 0
DWIDTH 5 0
BBX 5 15 -1 -2
BITMAP
C0
60
20
30
10
18
18
18
18
18
10
30
20
60
C0
ENDCHAR
STARTCHAR asterisk
ENCODING 42
SWIDTH 375 0
DWIDTH 6 0
BBX 5 6 0 7
BITMAP
20
A8
70
70
A8
20
ENDCHAR
STARTCHAR plus
ENCODING 43
SWIDTH 562 0
DWIDTH 9 0
BBX 7 7 1 2
BITMAP
10
10
10
FE
10
10
10
ENDCHAR
STARTCHAR comma
ENCODING 44
SWIDTH 250 0
DWIDTH 4 0
BBX 2 4 1 -2
BITMAP
C0
C0
40
80
ENDCHAR
STARTCHAR hyphen
ENCODING 45
SWIDTH 437 0
DWIDTH 7 0
BBX 6 1 0 5
BITMAP
FC
ENDCHAR
STARTCHAR period
ENCODING 46
SWIDTH 250 0
DWIDTH 4 0
BBX 2 2 1 0
BITMAP
C0
C0
ENDCHAR
STARTCHAR slash
ENCODING 47
SWIDTH 562 0
DWIDTH 9 0
BBX 9 16 0 -2
BITMAP
0180
0180
0300
0300
0600
0600
0C00
0C00
1800
1800
3000
3000
6000
6000
C000
C000
ENDCHAR
STARTCHAR zero
ENCODING 48
SWIDTH 687 0
DWIDTH 11 0
BBX 9 12 1 0
BITMAP
3E00
6300
C180
C180
C180
C180
C180
C180
C180
C180
6300
3E00
ENDCHAR
STARTCHAR one
ENCODING 49
SWIDTH 500 0
DWIDTH 8 0
BBX 6 12 1 0
BITMAP
30
70
B0
30
30
30
30
30
30
30
30
FC
ENDCHAR
STARTCHAR two
ENCODING 50
SWIDTH 625 0
DWIDTH 10 0
BBX 8 12 1 0
BITMAP
7E
C7
83
03
03
06
0C
18
30
61
FF
FF
ENDCHAR
STARTCHAR three
ENCODING 51
SWIDTH 625 0
DWIDTH 10 0
BBX 8 12 1 0
BITMAP
7E
C7
83
03
06
1C
06
03
03
83
C7
7E
ENDCHAR
STARTCHAR four
ENCODING 52
SWIDTH 625 0
DWIDTH 10 0
BBX 9 12 0 0
BITMAP
0300
0600
0C00
1B00
3300
6300
C300
FF80
0300
0300
0300
0780
ENDCHAR
STARTCHAR five
ENCODING 53
SWIDTH 625 0
DWIDTH 10 0
BBX 8 12 1 0
BITMAP
FE
C2
C0
C0
FC
C6
03
03
03
83
C6
7C
ENDCHAR
STARTCHAR six
ENCODING 54
SWIDTH 625 0
DWIDTH 10 0
BBX 8 12 1 0
BITMAP
0E
38
60
60
FC
E6
C3
C3
C3
C3
66
3C
ENDCHAR
STARTCHAR seven
ENCODING 55
SWIDTH 625 0
DWIDTH 10 0
BBX 8 12 1 0
BITMAP
FF
FF
83
06
0C
0C
18
18
18
30
30
30
ENDCHAR
STARTCHAR eight
ENCODING 56
SWIDTH 625 0
DWIDTH 10 0
BBX 8 12 1 0
BITMAP
7E
C7
C3
E3
76
3C
6E
C7
C3
C3
E3
7E
ENDCHAR
STARTCHAR nine
ENCODING 57
SWIDTH 625 0
DWIDTH 10 0
BBX 8 12 1 0
BITMAP
3C
66
C3
C3
C3
C3
67
3F
06
06
1C
70
ENDCHAR
STARTCHAR colon
ENCODING 58
SWIDTH 312 0
DWIDTH 5 0
BBX 2 9 1 0
BITMAP
C0
C0
00
00
00
00
00
C0
C0
ENDCHAR
STARTCHAR semicolon
ENCODING 59
SWIDTH 312 0
DWIDTH 5 0
BBX 2 11 1 -2
BITMAP
C0
C0
00
00
00
00
00
C0
C0
40
80
ENDCHAR
STARTCHAR less
ENCODING 60
SWIDTH 562 0
DWIDTH 9 0
BBX 7 7 1 1
BITMAP
06
1C
70
C0
70
1C
06
ENDCHAR
STARTCHAR equal
ENCODING 61
SWIDTH 625 0
DWIDTH 10 0
BBX 8 4 1 3
BITMAP
FF
00
00
FF
ENDCHAR
STARTCHAR greater
ENCODING 62
SWIDTH 562 0
DWIDTH 9 0
BBX 7 7 1 1
BITMAP
C0
70
1C
06
1C
70
C0
ENDCHAR
STARTCHAR question
ENCODING 63
SWIDTH 562 0
DWIDTH 9 0
BBX 8 12 0 0
BITMAP
7E
C3
C3
03
06
0C
18
18
18
00
18
18
ENDCHAR
STARTCHAR at
ENCODING 64
SWIDTH 750 0
DWIDTH 12 0
BBX 11 10 0 0
BITMAP
1F00
3180
60C0
CE60
DB60
DB60
CDC0
6000
3000
1F00
ENDCHAR
STARTCHAR A
ENCODING 65
SWIDTH 687 0
DWIDTH 11 0
BBX 12 12 -1 0
BITMAP
0600
0600
0F00
0B00
1B80
1180
1180
3FC0
20C0
60E0
4060
E0F0
ENDCHAR
STARTCHAR B
ENCODING 66
SWIDTH 687 0
DWIDTH 11 0
BBX 10 12 0 0
BITMAP
FF00
6180
6180
6180
6380
7F00
6180
60C0
60C0
60C0
61C0
FF80
ENDCHAR
STARTCHAR C
ENCODING 67
SWIDTH 687 0
DWIDTH 11 0
BBX 10 12 0 0
BITMAP
1F40
70C0
6040
E000
C000
C000
C000
C000
E000
6040
70C0
1F00
ENDCHAR
STARTCHAR D
ENCODING 68
SWIDTH 750 0
DWIDTH 12 0
BBX 11 12 0 0
BITMAP
FF00
61C0
60C0
6060
6060
6060
6060
6060
6060
60C0
61C0
FF00
ENDCHAR
STARTCHAR E
ENCODING 69
SWIDTH 625 0
DWIDTH 10 0
BBX 9 12 0 0
BITMAP
FF80
6180
6080
6000
6100
7F00
6100
6000
6000
6080
6180
FF80
ENDCHAR
STARTCHAR F
ENCODING 70
SWIDTH 625 0
DWIDTH 10 0
BBX 9 12 0 0
BITMAP
FF80
6180
6080
6000
6000
6100
7F00
6100
6000
6000
6000
F000
ENDCHAR
STARTCHAR G
ENCODING 71
SWIDTH 750 0
DWIDTH 12 0
BBX 12 12 0 0
BITMAP
1F40
70C0
6040
E000
C000
C000
C1F0
C060
E060
6060
7060
1F80
ENDCHAR
STARTCHAR H
ENCODING 72
SWIDTH 812 0
DWIDTH 13 0
BBX 12 12 0 0
BITMAP
F0F0
6060
6060
6060
6060
7FE0
6060
6060
6060
6060
6060
F0F0
ENDCHAR
STARTCHAR I
ENCODING 73
SWIDTH 312 0
DWIDTH 5 0
BBX 4 12 0 0
BITMAP
F0
60
60
60
60
60
60
60
60
60
60
F0
ENDCHAR
STARTCHAR J
ENCODING 74
SWIDTH 312 0
DWIDTH 5 0
BBX 6 15 -2 -3
BITMAP
3C
18
18
18
18
18
18
18
18
18
18
18
18
D0
E0
ENDCHAR
STARTCHAR K
ENCODING 75
SWIDTH 750 0
DWIDTH 12 0
BBX 12 12 0 0
BITMAP
F1E0
6080
6100
6200
6C00
7C00
6E00
6700
6380
61C0
60E0
F1F0
ENDCHAR
STARTCHAR L
ENCODING 76
SWIDTH 687 0
DWIDTH 11 0
BBX 10 12 0 0
BITMAP
F000
6000
6000
6000
6000
6000
6000
6000
6000
6040
60C0
FFC0
ENDCHAR
STARTCHAR M
ENCODING 77
SWIDTH 1062 0
DWIDTH 17 0
BBX 16 12 0 0
BITMAP
F00F
700E
7816
5816
5C26
4C26
4E46
4646
4786
4386
4306
E10F
ENDCHAR
STARTCHAR N
ENCODING 78
SWIDTH 812 0
DWIDTH 13 0
BBX 12 12 0 0
BITMAP
C070
6020
7020
7820
5C20
4E20
4720
43A0
41E0
40E0
4060
E020
ENDCHAR
STARTCHAR O
ENCODING 79
SWIDTH 812 0
DWIDTH 13 0
BBX 12 12 0 0
BITMAP
1F80
70E0
6060
E070
C030
C030
C030
C030
E070
6060
70E0
1F80
ENDCHAR
STARTCHAR P
ENCODING 80
SWIDTH 625 0
DWIDTH 10 0
BBX 9 12 0 0
BITMAP
FE00
6380
6180
6180
6180
6380
7E00
6000
6000
6000
6000
F000
ENDCHAR
STARTCHAR Q
ENCODING 81
SWIDTH 812 0
DWIDTH 13 0
BBX 12 15 0 -3
BITMAP
1F80
70E0
6060
E070
C030
C030
C030
C030
E070
6060
70E0
1F80
0300
0180
00E0
ENDCHAR
STARTCHAR R
ENCODING 82
SWIDTH 687 0
DWIDTH 11 0
BBX 11 12 0 0
BITMAP
FE00
6380
6180
6180
6180
6300
7C00
6E00
6700
6380
61C0
F1E0
ENDCHAR
STARTCHAR S
ENCODING 83
SWIDTH 562 0
DWIDTH 9 0
BBX 8 12 0 0
BITMAP
3D
43
C1
C0
F0
7C
1E
07
03
83
C6
BC
ENDCHAR
STARTCHAR T
ENCODING 84
SWIDTH 812 0
DWIDTH 13 0
BBX 12 12 0 0
BITMAP
FFF0
C630
8610
0600
0600
0600
0600
0600
0600
0600
0600
0F00
ENDCHAR
STARTCHAR U
ENCODING 85
SWIDTH 750 0
DWIDTH 12 0
BBX 11 12 0 0
BITMAP
F0E0
6040
6040
6040
6040
6040
6040
6040
6040
6040
3080
1F00
ENDCHAR
STARTCHAR V
ENCODING 86
SWIDTH 687 0
DWIDTH 11 0
BBX 12 12 -1 0
BITMAP
F070
6020
6020
3040
3040
1880
1880
1880
0D00
0F00
0600
0600
ENDCHAR
STARTCHAR W
ENCODING 87
SWIDTH 1000 0
DWIDTH 16 0
BBX 17 12 -1 0
BITMAP
F1E380
60C100
60C100
30E200
316200
316200
1A3400
1A3400
1E3C00
0C1800
0C1800
0C1800
ENDCHAR
STARTCHAR X
ENCODING 88
SWIDTH 750 0
DWIDTH 12 0
BBX 11 12 0 0
BITMAP
F1E0
60C0
3080
3900
1D00
0E00
0E00
1700
1380
2180
60C0
F1E0
ENDCHAR
STARTCHAR Y
ENCODING 89
SWIDTH 687 0
DWIDTH 11 0
BBX 12 12 -1 0
BITMAP
F070
6020
3040
3840
1880
0D00
0F00
0600
0600
0600
0600
0F00
ENDCHAR
STARTCHAR Z
ENCODING 90
SWIDTH 625 0
DWIDTH 10 0
BBX 9 12 0 0
BITMAP
FF80
C180
8380
0700
0E00
0C00
1800
3800
7000
E080
C180
FF80
ENDCHAR
STARTCHAR bracketleft
ENCODING 91
SWIDTH 375 0
DWIDTH 6 0
BBX 4 16 1 -2
BITMAP
F0
C0
C0
C0
C0
C0
C0
C0
C0
C0
C0
C0
C0
C0
C0
F0
ENDCHAR
STARTCHAR backslash
ENCODING 92
SWIDTH 562 0
DWIDTH 9 0
BBX 9 16 0 -2
BITMAP
C000
C000
6000
6000
3000
3000
1800
1800
0C00
0C00
0600
0600
0300
0300
0180
0180
ENDCHAR
STARTCHAR bracketright
ENCODING 93
SWIDTH 375 0
DWIDTH 6 0
BBX 4 16 0 -2
BITMAP
F0
30
30
30
30
30
30
30
30
30
30
30
30
30
30
F0
ENDCHAR
STARTCHAR asciicircum
ENCODING 94
SWIDTH 500 0
DWIDTH 8 0
BBX 7 7 0 5
BITMAP
10
10
38
28
6C
44
C6
ENDCHAR
STARTCHAR underscore
ENCODING 95
SWIDTH 500 0
DWIDTH 8 0
BBX 8 1 0 -1
BITMAP
FF
ENDCHAR
STARTCHAR grave
ENCODING 96
SWIDTH 375 0
DWIDTH 6 0
BBX 4 3 1 9
BITMAP
C0
60
10
ENDCHAR
STARTCHAR a
ENCODING 97
SWIDTH 562 0
DWIDTH 9 0
BBX 8 9 0 0
BITMAP
7C
C6
06
0E
76
C6
C6
EE
73
ENDCHAR
STARTCHAR b
ENCODING 98
SWIDTH 625 0
DWIDTH 10 0
BBX 9 13 0 0
BITMAP
E000
6000
6000
6000
6E00
7300
6180
6180
6180
6180
6180
7300
4E00
ENDCHAR
STARTCHAR c
ENCODING 99
SWIDTH 500 0
DWIDTH 8 0
BBX 7 9 0 0
BITMAP
3C
66
C0
C0
C0
C0
C0
62
3C
ENDCHAR
STARTCHAR d
ENCODING 100
SWIDTH 625 0
DWIDTH 10 0
BBX 9 13 0 0
BITMAP
0700
0300
0300
0300
3B00
6700
C300
C300
C300
C300
C300
6700
3980
ENDCHAR
STARTCHAR e
ENCODING 101
SWIDTH 562 0
DWIDTH 9 0
BBX 8 9 0 0
BITMAP
3E
63
C3
FF
C0
C0
C0
61
3E
ENDCHAR
STARTCHAR f
ENCODING 102
SWIDTH 375 0
DWIDTH 6 0
BBX 6 13 0 0
BITMAP
3C
64
60
60
F8
60
60
60
60
60
60
60
F0
ENDCHAR
STARTCHAR g
ENCODING 103
SWIDTH 625 0
DWIDTH 10 0
BBX 9 13 0 -4
BITMAP
3B80
6600
C300
C300
6600
7C00
8000
FF00
7F80
8080
8080
C180
7F00
ENDCHAR
STARTCHAR h
ENCODING 104
SWIDTH 687 0
DWIDTH 11 0
BBX 10 13 0 0
BITMAP
E000
6000
6000
6000
6F00
7380
6180
6180
6180
6180
6180
6180
F3C0
ENDCHAR
STARTCHAR i
ENCODING 105
SWIDTH 312 0
DWIDTH 5 0
BBX 4 12 0 0
BITMAP
60
60
00
E0
60
60
60
60
60
60
60
F0
ENDCHAR
STARTCHAR j
ENCODING 106
SWIDTH 312 0
DWIDTH 5 0
BBX 5 16 -2 -4
BITMAP
18
18
00
38
18
18
18
18
18
18
18
18
18
18
98
F0
ENDCHAR
STARTCHAR k
ENCODING 107
SWIDTH 625 0
DWIDTH 10 0
BBX 10 13 0 0
BITMAP
E000
6000
6000
6000
6380
6600
6C00
7800
6C00
6600
6300
6180
F1C0
ENDCHAR
STARTCHAR l
ENCODING 108
SWIDTH 312 0
DWIDTH 5 0
BBX 4 13 0 0
BITMAP
E0
60
60
60
60
60
60
60
60
60
60
60
F0
ENDCHAR
STARTCHAR m
ENCODING 109
SWIDTH 1062 0
DWIDTH 17 0
BBX 16 9 0 0
BITMAP
EF3C
73CE
6186
6186
6186
6186
6186
6186
F3CF
ENDCHAR
STARTCHAR n
ENCODING 110
SWIDTH 687 0
DWIDTH 11 0
BBX 10 9 0 0
BITMAP
EF00
7380
6180
6180
6180
6180
6180
6180
F3C0
ENDCHAR
STARTCHAR o
ENCODING 111
SWIDTH 625 0
DWIDTH 10 0
BBX 9 9 0 0
BITMAP
3E00
6300
C180
C180
C180
C180
C180
6300
3E00
ENDCHAR
STARTCHAR p
ENCODING 112
SWIDTH 625 0
DWIDTH 10 0
BBX 9 13 0 -4
BITMAP
EE00
7300
6180
6180
6180
6180
6180
7300
6E00
6000
6000
6000
F000
ENDCHAR
STARTCHAR q
ENCODING 113
SWIDTH 562 0
DWIDTH 9 0
BBX 9 13 0 -4
BITMAP
3900
6700
C300
C300
C300
C300
C300
6700
3B00
0300
0300
0300
0780
ENDCHAR
STARTCHAR r
ENCODING 114
SWIDTH 500 0
DWIDTH 8 0
BBX 7 9 0 0
BITMAP
EE
76
60
60
60
60
60
60
F0
ENDCHAR
STARTCHAR s
ENCODING 115
SWIDTH 500 0
DWIDTH 8 0
BBX 7 9 0 0
BITMAP
7A
C6
C2
F0
3C
0E
86
C6
BC
ENDCHAR
STARTCHAR t
ENCODING 116
SWIDTH 437 0
DWIDTH 7 0
BBX 6 11 0 0
BITMAP
20
60
FC
60
60
60
60
60
60
60
3C
ENDCHAR
STARTCHAR u
ENCODING 117
SWIDTH 687 0
DWIDTH 11 0
BBX 10 9 0 0
BITMAP
E380
6180
6180
6180
6180
6180
6180
7380
3CC0
ENDCHAR
STARTCHAR v
ENCODING 118
SWIDTH 562 0
DWIDTH 9 0
BBX 10 9 -1 0
BITMAP
F1C0
6080
6080
3100
3100
1A00
1A00
0C00
0C00
ENDCHAR
STARTCHAR w
ENCODING 119
SWIDTH 750 0
DWIDTH 12 0
BBX 13 9 -1 0
BITMAP
F338
6310
6310
35A0
35A0
35A0
18C0
18C0
18C0
ENDCHAR
STARTCHAR x
ENCODING 120
SWIDTH 625 0
DWIDTH 10 0
BBX 9 9 0 0
BITMAP
F380
6100
3200
1C00
1C00
1C00
2600
4300
E780
ENDCHAR
STARTCHAR y
ENCODING 121
SWIDTH 562 0
DWIDTH 9 0
BBX 10 13 -1 -4
BITMAP
F1C0
6080
6080
3100
3100
1A00
1A00
0C00
0C00
0400
0800
6800
7000
ENDCHAR
STARTCHAR z
ENCODING 122
SWIDTH 500 0
DWIDTH 8 0
BBX 7 9 0 0
BITMAP
FE
86
0C
18
18
30
60
C2
FE
ENDCHAR
STARTCHAR braceleft
ENCODING 123
SWIDTH 375 0
DWIDTH 6 0
BBX 5 15 0 -2
BITMAP
38
60
60
60
60
60
60
C0
60
60
60
60
60
60
38
ENDCHAR
STARTCHAR bar
ENCODING 124
SWIDTH 312 0
DWIDTH 5 0
BBX 2 15 1 -2
BITMAP
C0
C0
C0
C0
C0
C0
C0
C0
C0
C0
C0
C0
C0
C0
C0
ENDCHAR
STARTCHAR braceright
ENCODING 125
SWIDTH 375 0
DWIDTH 6 0
BBX 5 15 0 -2
BITMAP
E0
30
30
30
30
30
30
18
30
30
30
30
30
30
E0
ENDCHAR
STARTCHAR asciitilde
ENCODING 126
SWIDTH 625 0
DWIDTH 10 0
BBX 9 4 0 5
BITMAP
3880
7C80
9F00
8E00
ENDCHAR
STARTCHAR char007f
ENCODING 127
SWIDTH 0 0
DWIDTH 0 0
BBX 0 0 -2 -4
BITMAP
ENDCHAR
STARTCHAR Adieresis
ENCODING 128
SWIDTH 687 0
DWIDTH 11 0
BBX 12 14 -1 0
BITMAP
1980
0000
0600
0600
0F00
0B00
1B80
1180
1180
3FC0
20C0
60E0
4060
E0F0
ENDCHAR
STARTCHAR Aring
ENCODING 129
SWIDTH 687 0
DWIDTH 11 0
BBX 12 15 -1 0
BITMAP
0600
0900
0600
0600
0600
0F00
0B00
1B80
1180
1180
3FC0
20C0
60E0
4060
E0F0
ENDCHAR
STARTCHAR Ccedilla
ENCODING 130
SWIDTH 687 0
DWIDTH 11 0
BBX 10 15 0 -3
BITMAP
1F40
70C0
6040
E000
C000
C000
C000
C000
E000
6040
70C0
1F00
0C00
0400
1800
ENDCHAR
STARTCHAR Eacute
ENCODING 131
SWIDTH 625 0
DWIDTH 10 0
BBX 9 16 0 0
BITMAP
0300
0600
0800
0000
FF80
6180
6080
6000
6100
7F00
6100
6000
6000
6080
6180
FF80
ENDCHAR
STARTCHAR Ntilde
ENCODING 132
SWIDTH 812 0
DWIDTH 13 0
BBX 12 15 0 0
BITMAP
0E40
1380
0000
C070
6020
7020
7820
5C20
4E20
4720
43A0
41E0
40E0
4060
E020
ENDCHAR
STARTCHAR Odieresis
ENCODING 133
SWIDTH 812 0
DWIDTH 13 0
BBX 12 14 0 0
BITMAP
1980
0000
1F80
70E0
6060
E070
C030
C030
C030
C030
E070
6060
70E0
1F80
ENDCHAR
STARTCHAR Udieresis
ENCODING 134
SWIDTH 750 0
DWIDTH 12 0
BBX 11 14 0 0
BITMAP
1980
0000
F0E0
6040
6040
6040
6040
6040
6040
6040
6040
6040
3080
1F00
ENDCHAR
STARTCHAR aacute
ENCODING 135
SWIDTH 562 0
DWIDTH 9 0
BBX 8 13 0 0
BITMAP
0C
18
20
00
7C
C6
06
0E
76
C6
C6
EE
73
ENDCHAR
STARTCHAR agrave
ENCODING 136
SWIDTH 562 0
DWIDTH 9 0
BBX 8 13 0 0
BITMAP
60
30
08
00
7C
C6
06
0E
76
C6
C6
EE
73
ENDCHAR
STARTCHAR acircumflex
ENCODING 137
SWIDTH 562 0
DWIDTH 9 0
BBX 8 13 0 0
BITMAP
10
38
44
00
7C
C6
06
0E
76
C6
C6
EE
73
ENDCHAR
STARTCHAR adieresis
ENCODING 138
SWIDTH 562 0
DWIDTH 9 0
BBX 8 11 0 0
BITMAP
6C
00
7C
C6
06
0E
76
C6
C6
EE
73
ENDCHAR
STARTCHAR atilde
ENCODING 139
SWIDTH 562 0
DWIDTH 9 0
BBX 8 12 0 0
BITMAP
72
9C
00
7C
C6
06
0E
76
C6
C6
EE
73
ENDCHAR
STARTCHAR aring
ENCODING 140
SWIDTH 562 0
DWIDTH 9 0
BBX 8 13 0 0
BITMAP
18
24
18
00
7C
C6
06
0E
76
C6
C6
EE
73
ENDCHAR
STARTCHAR ccedilla
ENCODING 141
SWIDTH 500 0
DWIDTH 8 0
BBX 7 12 0 -3
BITMAP
3C
66
C0
C0
C0
C0
C0
62
3C
18
08
30
ENDCHAR
STARTCHAR eacute
ENCODING 142
SWIDTH 562 0
DWIDTH 9 0
BBX 8 13 0 0
BITMAP
06
0C
10
00
3E
63
C3
FF
C0
C0
C0
61
3E
ENDCHAR
STARTCHAR egrave
ENCODING 143
SWIDTH 562 0
DWIDTH 9 0
BBX 8 13 0 0
BITMAP
30
18
04
00
3E
63
C3
FF
C0
C0
C0
61
3E
ENDCHAR
STARTCHAR ecircumflex
ENCODING 144
SWIDTH 562 0
DWIDTH 9 0
BBX 8 13 0 0
BITMAP
08
1C
22
00
3E
63
C3
FF
C0
C0
C0
61
3E
ENDCHAR
STARTCHAR edieresis
ENCODING 145
SWIDTH 562 0
DWIDTH 9 0
BBX 8 11 0 0
BITMAP
36
00
3E
63
C3
FF
C0
C0
C0
61
3E
ENDCHAR
STARTCHAR iacute
ENCODING 146
SWIDTH 312 0
DWIDTH 5 0
BBX 4 13 0 0
BITMAP
30
60
80
00
E0
60
60
60
60
60
60
60
F0
ENDCHAR
STARTCHAR igrave
ENCODING 147
SWIDTH 312 0
DWIDTH 5 0
BBX 5 13 -1 0
BITMAP
C0
60
10
00
70
30
30
30
30
30
30
30
78
ENDCHAR
STARTCHAR icircumflex
ENCODING 148
SWIDTH 312 0
DWIDTH 5 0
BBX 5 13 -1 0
BITMAP
20
70
88
00
70
30
30
30
30
30
30
30
78
ENDCHAR
STARTCHAR idieresis
ENCODING 149
SWIDTH 312 0
DWIDTH 5 0
BBX 5 12 -1 0
BITMAP
D8
00
00
70
30
30
30
30
30
30
30
78
ENDCHAR
STARTCHAR ntilde
ENCODING 150
SWIDTH 687 0
DWIDTH 11 0
BBX 10 12 0 0
BITMAP
3900
4E00
0000
EF00
7380
6180
6180
6180
6180
6180
6180
F3C0
ENDCHAR
STARTCHAR oacute
ENCODING 151
SWIDTH 625 0
DWIDTH 10 0
BBX 9 13 0 0
BITMAP
0600
0C00
1000
0000
3E00
6300
C180
C180
C180
C180
C180
6300
3E00
ENDCHAR
STARTCHAR ograve
ENCODING 152
SWIDTH 625 0
DWIDTH 10 0
BBX 9 13 0 0
BITMAP
3000
1800
0400
0000
3E00
6300
C180
C180
C180
C180
C180
6300
3E00
ENDCHAR
STARTCHAR ocircumflex
ENCODING 153
SWIDTH 625 0
DWIDTH 10 0
BBX 9 13 0 0
BITMAP
0800
1C00
2200
0000
3E00
6300
C180
C180
C180
C180
C180
6300
3E00
ENDCHAR
STARTCHAR odieresis
ENCODING 154
SWIDTH 625 0
DWIDTH 10 0
BBX 9 11 0 0
BITMAP
3600
0000
3E00
6300
C180
C180
C180
C180
C180
6300
3E00
ENDCHAR
STARTCHAR otilde
ENCODING 155
SWIDTH 625 0
DWIDTH 10 0
BBX 9 12 0 0
BITMAP
3900
4E00
0000
3E00
6300
C180
C180
C180
C180
C180
6300
3E00
ENDCHAR
STARTCHAR uacute
ENCODING 156
SWIDTH 687 0
DWIDTH 11 0
BBX 10 13 0 0
BITMAP
0300
0600
0800
0000
E380
6180
6180
6180
6180
6180
6180
7380
3CC0
ENDCHAR
STARTCHAR ugrave
ENCODING 157
SWIDTH 687 0
DWIDTH 11 0
BBX 10 13 0 0
BITMAP
3000
1800
0400
0000
E380
6180
6180
6180
6180
6180
6180
7380
3CC0
ENDCHAR
STARTCHAR ucircumflex
ENCODING 158
SWIDTH 687 0
DWIDTH 11 0
BBX 10 13 0 0
BITMAP
0800
1C00
2200
0000
E380
6180
6180
6180
6180
6180
6180
7380
3CC0
ENDCHAR
STARTCHAR udieresis
ENCODING 159
SWIDTH 687 0
DWIDTH 11 0
BBX 10 11 0 0
BITMAP
3600
0000
E380
6180
6180
6180
6180
6180
6180
7380
3CC0
ENDCHAR
STARTCHAR dagger
ENCODING 160
SWIDTH 812 0
DWIDTH 13 0
BBX 11 11 1 0
BITMAP
60C0
9120
9120
7FC0
1100
1100
1100
7FC0
9120
9120
60C0
ENDCHAR
STARTCHAR degree
ENCODING 161
SWIDTH 312 0
DWIDTH 5 0
BBX 4 4 0 8
BITMAP
60
90
90
60
ENDCHAR
STARTCHAR cent
ENCODING 162
SWIDTH 562 0
DWIDTH 9 0
BBX 7 13 1 -2
BITMAP
08
08
3E
6A
C8
C8
C8
C8
C8
6A
3E
08
08
ENDCHAR
STARTCHAR sterling
ENCODING 163
SWIDTH 562 0
DWIDTH 9 0
BBX 8 12 1 0
BITMAP
3C
62
60
60
60
F8
60
60
60
60
61
FE
ENDCHAR
STARTCHAR section
ENCODING 164
SWIDTH 937 0
DWIDTH 15 0
BBX 13 13 1 -1
BITMAP
0200
0700
0F80
0780
3320
7870
F8F8
70F0
2660
0F00
0F80
0700
0200
ENDCHAR
STARTCHAR bullet
ENCODING 165
SWIDTH 500 0
DWIDTH 8 0
BBX 5 5 1 4
BITMAP
70
F8
F8
F8
70
ENDCHAR
STARTCHAR paragraph
ENCODING 166
SWIDTH 625 0
DWIDTH 10 0
BBX 9 13 0 -1
BITMAP
7F80
F300
F300
F300
F300
7300
1300
1300
1300
1300
1300
1300
3380
ENDCHAR
STARTCHAR germandbls
ENCODING 167
SWIDTH 750 0
DWIDTH 12 0
BBX 11 12 0 0
BITMAP
1F80
30C0
60C0
60C0
E180
6300
67C0
60E0
6060
6060
64E0
E7C0
ENDCHAR
STARTCHAR registered
ENCODING 168
SWIDTH 625 0
DWIDTH 10 0
BBX 9 9 0 0
BITMAP
3E00
4100
BC80
A280
BC80
A480
A280
4100
3E00
ENDCHAR
STARTCHAR copyright
ENCODING 169
SWIDTH 625 0
DWIDTH 10 0
BBX 9 9 0 0
BITMAP
3E00
4100
9C80
A080
A080
A080
9C80
4100
3E00
ENDCHAR
STARTCHAR trademark
ENCODING 170
SWIDTH 625 0
DWIDTH 10 0
BBX 9 4 0 9
BITMAP
E880
4D80
4A80
4A80
ENDCHAR
STARTCHAR acute
ENCODING 171
SWIDTH 375 0
DWIDTH 6 0
BBX 4 3 1 10
BITMAP
30
60
80
ENDCHAR
STARTCHAR dieresis
ENCODING 172
SWIDTH 437 0
DWIDTH 7 0
BBX 5 1 1 11
BITMAP
D8
ENDCHAR
STARTCHAR notequal
ENCODING 173
SWIDTH 625 0
DWIDTH 10 0
BBX 8 8 1 1
BITMAP
02
04
FF
08
10
FF
20
40
ENDCHAR
STARTCHAR AE
ENCODING 174
SWIDTH 1000 0
DWIDTH 16 0
BBX 16 12 -1 0
BITMAP
03FF
02C3
06C1
04C0
0CC2
08FE
18C2
1FC0
30C0
20C1
60C3
F1FF
ENDCHAR
STARTCHAR Oslash
ENCODING 175
SWIDTH 812 0
DWIDTH 13 0
BBX 12 12 0 0
BITMAP
1FB0
70E0
60E0
E1F0
C330
C630
CC30
D830
F070
6060
F0E0
9F80
ENDCHAR
STARTCHAR infinity
ENCODING 176
SWIDTH 812 0
DWIDTH 13 0
BBX 12 5 0 3
BITMAP
79E0
8710
8610
8E10
79E0
ENDCHAR
STARTCHAR plusminus
ENCODING 177
SWIDTH 562 0
DWIDTH 9 0
BBX 7 8 1 2
BITMAP
10
10
10
FE
10
10
10
FE
ENDCHAR
STARTCHAR lessequal
ENCODING 178
SWIDTH 562 0
DWIDTH 9 0
BBX 7 8 1 2
BITMAP
06
1C
70
C0
70
1C
06
FE
ENDCHAR
STARTCHAR greaterequal
ENCODING 179
SWIDTH 562 0
DWIDTH 9 0
BBX 7 8 1 2
BITMAP
C0
70
1C
06
1C
70
C0
FE
ENDCHAR
STARTCHAR yen
ENCODING 180
SWIDTH 625 0
DWIDTH 10 0
BBX 10 11 0 0
BITMAP
F1C0
6080
3100
3300
1A00
1E00
7F80
0C00
7F80
0C00
1E00
ENDCHAR
STARTCHAR mu
ENCODING 181
SWIDTH 687 0
DWIDTH 11 0
BBX 10 12 0 -3
BITMAP
E380
6180
6180
6180
6180
6180
6180
6380
7CC0
6000
6000
6000
ENDCHAR
STARTCHAR partialdiff
ENCODING 182
SWIDTH 625 0
DWIDTH 10 0
BBX 8 12 0 0
BITMAP
3C
06
03
03
3B
67
C3
C3
C3
C3
66
3C
ENDCHAR
STARTCHAR summation
ENCODING 183
SWIDTH 562 0
DWIDTH 9 0
BBX 8 13 0 -1
BITMAP
FF
C1
E0
70
38
1C
0C
18
30
60
C1
FF
FF
ENDCHAR
STARTCHAR product
ENCODING 184
SWIDTH 750 0
DWIDTH 12 0
BBX 11 13 0 -1
BITMAP
FFE0
60C0
60C0
60C0
60C0
60C0
60C0
60C0
60C0
60C0
60C0
60C0
F1E0
ENDCHAR
STARTCHAR pi
ENCODING 185
SWIDTH 625 0
DWIDTH 10 0
BBX 9 8 0 0
BITMAP
FF80
6300
6300
6300
6300
6300
6380
E300
ENDCHAR
STARTCHAR integral
ENCODING 186
SWIDTH 312 0
DWIDTH 5 0
BBX 6 18 -1 -4
BITMAP
1C
30
30
30
30
30
30
30
30
30
30
30
30
30
30
30
30
E0
ENDCHAR
STARTCHAR ordfeminine
ENCODING 187
SWIDTH 437 0
DWIDTH 7 0
BBX 6 7 0 5
BITMAP
7C
CC
CC
DC
6C
00
FC
ENDCHAR
STARTCHAR ordmasculine
ENCODING 188
SWIDTH 437 0
DWIDTH 7 0
BBX 6 7 0 5
BITMAP
78
CC
CC
CC
78
00
FC
ENDCHAR
STARTCHAR Omega
ENCODING 189
SWIDTH 750 0
DWIDTH 12 0
BBX 11 12 0 0
BITMAP
1F00
3180
60C0
C060
C060
C060
C060
60C0
3180
1B00
9B20
FBE0
ENDCHAR
STARTCHAR ae
ENCODING 190
SWIDTH 875 0
DWIDTH 14 0
BBX 13 9 0 0
BITMAP
7DF0
C718
0618
0FF8
7600
C600
C600
EF08
73F0
ENDCHAR
STARTCHAR oslash
ENCODING 191
SWIDTH 625 0
DWIDTH 10 0
BBX 9 9 0 0
BITMAP
3E80
6300
C380
C580
C980
D180
E180
6300
BE00
ENDCHAR
STARTCHAR questiondown
ENCODING 192
SWIDTH 562 0
DWIDTH 9 0
BBX 8 12 0 -3
BITMAP
18
18
00
18
18
18
30
60
C0
C3
C3
7E
ENDCHAR
STARTCHAR exclamdown
ENCODING 193
SWIDTH 312 0
DWIDTH 5 0
BBX 2 12 1 -3
BITMAP
C0
C0
00
C0
C0
C0
C0
C0
C0
C0
C0
C0
ENDCHAR
STARTCHAR logicalnot
ENCODING 194
SWIDTH 625 0
DWIDTH 10 0
BBX 8 4 1 2
BITMAP
FF
01
01
01
ENDCHAR
STARTCHAR radical
ENCODING 195
SWIDTH 562 0
DWIDTH 9 0
BBX 8 13 0 -1
BITMAP
01
01
03
02
06
04
C4
4C
68
28
38
10
10
ENDCHAR
STARTCHAR florin
ENCODING 196
SWIDTH 562 0
DWIDTH 9 0
BBX 10 14 -1 -2
BITMAP
01C0
0300
0300
0600
1F80
0600
0C00
0C00
0C00
1800
1800
3000
3000
E000
ENDCHAR
STARTCHAR approxequal
ENCODING 197
SWIDTH 687 0
DWIDTH 11 0
BBX 9 5 1 2
BITMAP
7880
8F00
0000
7880
8F00
ENDCHAR
STARTCHAR Delta
ENCODING 198
SWIDTH 937 0
DWIDTH 15 0
BBX 14 13 0 0
BITMAP
0300
0300
0580
0580
08C0
08C0
1060
1060
2030
2030
4018
4018
FFFC
ENDCHAR
STARTCHAR guillemotleft
ENCODING 199
SWIDTH 625 0
DWIDTH 10 0
BBX 9 7 0 1
BITMAP
1980
3300
6600
CC00
6600
3300
1980
ENDCHAR
STARTCHAR guillemotright
ENCODING 200
SWIDTH 625 0
DWIDTH 10 0
BBX 9 7 0 1
BITMAP
CC00
6600
3300
1980
3300
6600
CC00
ENDCHAR
STARTCHAR ellipsis
ENCODING 201
SWIDTH 875 0
DWIDTH 14 0
BBX 12 2 1 0
BITMAP
C630
C630
ENDCHAR
STARTCHAR nbspace
ENCODING 202
SWIDTH 250 0
DWIDTH 4 0
BBX 0 0 -2 -4
BITMAP
ENDCHAR
STARTCHAR Agrave
ENCODING 203
SWIDTH 687 0
DWIDTH 11 0
BBX 12 16 -1 0
BITMAP
0C00
0600
0100
0000
0600
0600
0F00
0B00
1B80
1180
1180
3FC0
20C0
60E0
4060
E0F0
ENDCHAR
STARTCHAR Atilde
ENCODING 204
SWIDTH 687 0
DWIDTH 11 0
BBX 12 15 -1 0
BITMAP
0E40
1380
0000
0600
0600
0F00
0B00
1B80
1180
1180
3FC0
20C0
60E0
4060
E0F0
ENDCHAR
STARTCHAR Otilde
ENCODING 205
SWIDTH 812 0
DWIDTH 13 0
BBX 12 15 0 0
BITMAP
0E40
1380
0000
1F80
70E0
6060
E070
C030
C030
C030
C030
E070
6060
70E0
1F80
ENDCHAR
STARTCHAR OE
ENCODING 206
SWIDTH 1000 0
DWIDTH 16 0
BBX 15 12 0 0
BITMAP
1FFE
7186
6182
E180
C184
C1FC
C184
C180
E180
6182
7186
1FFE
ENDCHAR
STARTCHAR oe
ENCODING 207
SWIDTH 1000 0
DWIDTH 16 0
BBX 15 9 0 0
BITMAP
3E7C
63C6
C186
C1FE
C180
C180
C180
63C2
3E7C
ENDCHAR
STARTCHAR endash
ENCODING 208
SWIDTH 625 0
DWIDTH 10 0
BBX 9 1 0 5
BITMAP
FF80
ENDCHAR
STARTCHAR emdash
ENCODING 209
SWIDTH 1062 0
DWIDTH 17 0
BBX 16 1 0 5
BITMAP
FFFF
ENDCHAR
STARTCHAR quotedblleft
ENCODING 210
SWIDTH 375 0
DWIDTH 6 0
BBX 5 4 0 9
BITMAP
48
90
D8
D8
ENDCHAR
STARTCHAR quotedblright
ENCODING 211
SWIDTH 375 0
DWIDTH 6 0
BBX 5 4 0 9
BITMAP
D8
D8
48
90
ENDCHAR
STARTCHAR quoteleft
ENCODING 212
SWIDTH 187 0
DWIDTH 3 0
BBX 2 4 0 9
BITMAP
40
80
C0
C0
ENDCHAR
STARTCHAR quoteright
ENCODING 213
SWIDTH 187 0
DWIDTH 3 0
BBX 2 4 0 9
BITMAP
C0
C0
40
80
ENDCHAR
STARTCHAR divide
ENCODING 214
SWIDTH 625 0
DWIDTH 10 0
BBX 8 7 1 2
BITMAP
18
18
00
FF
00
18
18
ENDCHAR
STARTCHAR lozenge
ENCODING 215
SWIDTH 625 0
DWIDTH 10 0
BBX 7 14 1 -1
BITMAP
10
10
28
28
44
44
82
82
44
44
28
28
10
10
ENDCHAR
STARTCHAR ydieresis
ENCODING 216
SWIDTH 562 0
DWIDTH 9 0
BBX 10 15 -1 -4
BITMAP
1B00
0000
F1C0
6080
6080
3100
3100
1A00
1A00
0C00
0C00
0400
0800
6800
7000
ENDCHAR
STARTCHAR Ydieresis
ENCODING 217
SWIDTH 687 0
DWIDTH 11 0
BBX 12 12 -1 0
BITMAP
F070
6020
3040
3840
1880
0D00
0F00
0600
0600
0600
0600
0F00
ENDCHAR
STARTCHAR fraction
ENCODING 218
SWIDTH 562 0
DWIDTH 9 0
BBX 9 16 0 -2
BITMAP
0180
0180
0300
0300
0600
0600
0C00
0C00
1800
1800
3000
3000
6000
6000
C000
C000
ENDCHAR
STARTCHAR currency
ENCODING 219
SWIDTH 687 0
DWIDTH 11 0
BBX 9 9 1 0
BITMAP
9C80
6300
4100
8080
8080
8080
4100
6300
9C80
ENDCHAR
STARTCHAR guilsinglleft
ENCODING 220
SWIDTH 375 0
DWIDTH 6 0
BBX 5 7 0 1
BITMAP
18
30
60
C0
60
30
18
ENDCHAR
STARTCHAR guilsinglright
ENCODING 221
SWIDTH 375 0
DWIDTH 6 0
BBX 5 7 0 1
BITMAP
C0
60
30
18
30
60
C0
ENDCHAR
STARTCHAR fi
ENCODING 222
SWIDTH 625 0
DWIDTH 10 0
BBX 9 13 0 0
BITMAP
3E00
6300
6300
6000
FF00
6300
6300
6300
6300
6300
6300
6300
F780
ENDCHAR
STARTCHAR fl
ENCODING 223
SWIDTH 625 0
DWIDTH 10 0
BBX 9 13 0 0
BITMAP
3F00
6300
6300
6300
FB00
6300
6300
6300
6300
6300
6300
6300
F780
ENDCHAR
STARTCHAR daggerdbl
ENCODING 224
SWIDTH 812 0
DWIDTH 13 0
BBX 9 9 2 0
BITMAP
FF80
FF80
FF80
FF80
FF80
FF80
FF80
FF80
FF80
ENDCHAR
STARTCHAR periodcentered
ENCODING 225
SWIDTH 312 0
DWIDTH 5 0
BBX 2 2 1 5
BITMAP
C0
C0
ENDCHAR
STARTCHAR quotesinglbase
ENCODING 226
SWIDTH 187 0
DWIDTH 3 0
BBX 2 4 0 -2
BITMAP
C0
C0
40
80
ENDCHAR
STARTCHAR quotedblbase
ENCODING 227
SWIDTH 375 0
DWIDTH 6 0
BBX 5 4 0 -2
BITMAP
D8
D8
48
90
ENDCHAR
STARTCHAR perthousand
ENCODING 228
SWIDTH 1062 0
DWIDTH 17 0
BBX 16 12 0 0
BITMAP
70C0
DFC0
D980
DB00
7300
0600
0C00
0DCE
1B7B
337B
337B
61CE
ENDCHAR
STARTCHAR Acircumflex
ENCODING 229
SWIDTH 687 0
DWIDTH 11 0
BBX 12 16 -1 0
BITMAP
0200
0700
0880
0000
0600
0600
0F00
0B00
1B80
1180
1180
3FC0
20C0
60E0
4060
E0F0
ENDCHAR
STARTCHAR Ecircumflex
ENCODING 230
SWIDTH 625 0
DWIDTH 10 0
BBX 9 16 0 0
BITMAP
0800
1C00
2200
0000
FF80
6180
6080
6000
6100
7F00
6100
6000
6000
6080
6180
FF80
ENDCHAR
STARTCHAR Aacute
ENCODING 231
SWIDTH 687 0
DWIDTH 11 0
BBX 12 16 -1 0
BITMAP
0300
0600
0800
0000
0600
0600
0F00
0B00
1B80
1180
1180
3FC0
20C0
60E0
4060
E0F0
ENDCHAR
STARTCHAR Edieresis
ENCODING 232
SWIDTH 625 0
DWIDTH 10 0
BBX 9 14 0 0
BITMAP
3300
0000
FF80
6180
6080
6000
6100
7F00
6100
6000
6000
6080
6180
FF80
ENDCHAR
STARTCHAR Egrave
ENCODING 233
SWIDTH 625 0
DWIDTH 10 0
BBX 9 16 0 0
BITMAP
3000
1800
0400
0000
FF80
6180
6080
6000
6100
7F00
6100
6000
6000
6080
6180
FF80
ENDCHAR
STARTCHAR Iacute
ENCODING 234
SWIDTH 312 0
DWIDTH 5 0
BBX 4 16 0 0
BITMAP
30
60
80
00
F0
60
60
60
60
60
60
60
60
60
60
F0
ENDCHAR
STARTCHAR Icircumflex
ENCODING 235
SWIDTH 312 0
DWIDTH 5 0
BBX 5 16 0 0
BITMAP
20
70
88
00
F0
60
60
60
60
60
60
60
60
60
60
F0
ENDCHAR
STARTCHAR Idieresis
ENCODING 236
SWIDTH 312 0
DWIDTH 5 0
BBX 5 14 0 0
BITMAP
D8
00
F0
60
60
60
60
60
60
60
60
60
60
F0
ENDCHAR
STARTCHAR Igrave
ENCODING 237
SWIDTH 312 0
DWIDTH 5 0
BBX 4 16 0 0
BITMAP
C0
60
10
00
F0
60
60
60
60
60
60
60
60
60
60
F0
ENDCHAR
STARTCHAR Oacute
ENCODING 238
SWIDTH 812 0
DWIDTH 13 0
BBX 12 16 0 0
BITMAP
0180
0300
0400
0000
1F80
70E0
6060
E070
C030
C030
C030
C030
E070
6060
70E0
1F80
ENDCHAR
STARTCHAR Ocircumflex
ENCODING 239
SWIDTH 812 0
DWIDTH 13 0
BBX 12 16 0 0
BITMAP
0200
0700
0880
0000
1F80
70E0
6060
E070
C030
C030
C030
C030
E070
6060
70E0
1F80
ENDCHAR
STARTCHAR apple
ENCODING 240
SWIDTH 687 0
DWIDTH 11 0
BBX 10 12 0 0
BITMAP
0200
0600
0400
7380
FFC0
FF80
FF00
FF00
FF80
7FC0
7F80
3300
ENDCHAR
STARTCHAR Ograve
ENCODING 241
SWIDTH 812 0
DWIDTH 13 0
BBX 12 16 0 0
BITMAP
1800
0C00
0200
0000
1F80
70E0
6060
E070
C030
C030
C030
C030
E070
6060
70E0
1F80
ENDCHAR
STARTCHAR Uacute
ENCODING 242
SWIDTH 750 0
DWIDTH 12 0
BBX 11 16 0 0
BITMAP
0180
0300
0400
0000
F0E0
6040
6040
6040
6040
6040
6040
6040
6040
6040
3080
1F00
ENDCHAR
STARTCHAR Ucircumflex
ENCODING 243
SWIDTH 750 0
DWIDTH 12 0
BBX 11 16 0 0
BITMAP
0400
0E00
1100
0000
F0E0
6040
6040
6040
6040
6040
6040
6040
6040
6040
3080
1F00
ENDCHAR
STARTCHAR Ugrave
ENCODING 244
SWIDTH 750 0
DWIDTH 12 0
BBX 11 16 0 0
BITMAP
1800
0C00
0200
0000
F0E0
6040
6040
6040
6040
6040
6040
6040
6040
6040
3080
1F00
ENDCHAR
STARTCHAR dotlessi
ENCODING 245
SWIDTH 312 0
DWIDTH 5 0
BBX 4 9 0 0
BITMAP
E0
60
60
60
60
60
60
60
F0
ENDCHAR
STARTCHAR circumflex
ENCODING 246
SWIDTH 437 0
DWIDTH 7 0
BBX 5 3 1 9
BITMAP
20
70
88
ENDCHAR
STARTCHAR tilde
ENCODING 247
SWIDTH 562 0
DWIDTH 9 0
BBX 7 2 1 10
BITMAP
72
9C
ENDCHAR
STARTCHAR macron
ENCODING 248
SWIDTH 375 0
DWIDTH 6 0
BBX 4 1 1 10
BITMAP
F0
ENDCHAR
STARTCHAR breve
ENCODING 249
SWIDTH 437 0
DWIDTH 7 0
BBX 5 2 1 10
BITMAP
88
70
ENDCHAR
STARTCHAR dotaccent
ENCODING 250
SWIDTH 250 0
DWIDTH 4 0
BBX 2 2 1 10
BITMAP
C0
C0
ENDCHAR
STARTCHAR ring
ENCODING 251
SWIDTH 375 0
DWIDTH 6 0
BBX 4 3 1 9
BITMAP
60
90
60
ENDCHAR
STARTCHAR cedilla
ENCODING 252
SWIDTH 312 0
DWIDTH 5 0
BBX 3 5 1 -4
BITMAP
80
C0
60
20
C0
ENDCHAR
STARTCHAR hungarumlaut
ENCODING 253
SWIDTH 562 0
DWIDTH 9 0
BBX 7 3 1 10
BITMAP
36
6C
90
ENDCHAR
STARTCHAR ogonek
ENCODING 254
SWIDTH 375 0
DWIDTH 6 0
BBX 4 4 1 -3
BITMAP
60
C0
C0
70
ENDCHAR
STARTCHAR caron
ENCODING 255
SWIDTH 437 0
DWIDTH 7 0
BBX 5 3 1 9
BITMAP
88
70
20
ENDCHAR
ENDFONT
